<?xml version="1.0" encoding="UTF-8"?>
<svg xmlns="http://www.w3.org/2000/svg" xmlns:xlink="http://www.w3.org/1999/xlink" width="70px" height="70px" viewBox="0 0 70 70" version="1.1">
<g id="surface1">
<path style=" stroke:none;fill-rule:nonzero;fill:rgb(100%,100%,100%);fill-opacity:1;" d="M 0 0.582031 L 70 0.582031 L 70 69.417969 L 0 69.417969 Z M 0 0.582031 "/>
<path style="fill:none;stroke-width:2.751;stroke-linecap:butt;stroke-linejoin:miter;stroke:rgb(20%,64.313725%,34.117647%);stroke-opacity:1;stroke-miterlimit:2.613;" d="M 96.377801 8.495775 C 144.728048 8.495775 184.21498 47.984723 184.21498 96.345011 C 184.21498 144.770931 144.728048 184.259879 96.377801 184.259879 C 47.952259 184.259879 8.551379 144.770931 8.551379 96.345011 C 8.551379 47.984723 47.952259 8.495775 96.377801 8.495775 Z M 96.377801 8.495775 " transform="matrix(0.363154,0,0,0.357102,0,0.583333)"/>
<path style=" stroke:none;fill-rule:evenodd;fill:rgb(20%,64.313725%,34.117647%);fill-opacity:1;" d="M 35 4.996094 C 51.796875 4.996094 65.507812 18.464844 65.507812 34.992188 C 65.507812 51.511719 51.796875 64.984375 35 64.984375 C 18.203125 64.984375 4.492188 51.511719 4.492188 34.992188 C 4.492188 18.464844 18.203125 4.996094 35 4.996094 Z M 35 4.996094 "/>
<path style=" stroke:none;fill-rule:evenodd;fill:rgb(100%,100%,100%);fill-opacity:1;" d="M 35 5.914062 C 45.023438 5.914062 53.195312 13.976562 53.195312 23.835938 C 53.195312 33.691406 45.023438 41.726562 35 41.726562 C 24.976562 41.726562 16.78125 33.691406 16.78125 23.835938 C 16.78125 13.976562 24.976562 5.914062 35 5.914062 Z M 35 5.914062 "/>
<path style="fill:none;stroke-width:2.751;stroke-linecap:butt;stroke-linejoin:miter;stroke:rgb(20%,64.313725%,34.117647%);stroke-opacity:1;stroke-miterlimit:2.613;" d="M 96.377801 18.854788 C 121.881346 18.854788 142.63054 39.605628 142.63054 65.114832 C 142.63054 90.547465 121.881346 111.374876 96.377801 111.374876 C 70.874256 111.374876 50.125062 90.547465 50.125062 65.114832 C 50.125062 39.605628 70.874256 18.854788 96.377801 18.854788 Z M 96.377801 18.854788 " transform="matrix(0.363154,0,0,0.357102,0,0.583333)"/>
<path style="fill-rule:evenodd;fill:rgb(100%,100%,100%);fill-opacity:1;stroke-width:1.101;stroke-linecap:butt;stroke-linejoin:miter;stroke:rgb(20%,64.313725%,34.117647%);stroke-opacity:1;stroke-miterlimit:2.613;" d="M 96.313262 20.725317 C 85.255631 29.246616 73.391265 35.492652 60.322177 38.839914 C 59.278801 69.162176 74.154973 91.247546 96.313262 109.548102 C 118.460795 91.247546 133.336967 69.162176 132.304347 38.839914 C 119.235259 35.492652 107.349381 29.246616 96.313262 20.725317 Z M 96.313262 20.725317 " transform="matrix(0.363154,0,0,0.357102,0,0.583333)"/>
<path style="fill:none;stroke-width:1.101;stroke-linecap:butt;stroke-linejoin:miter;stroke:rgb(20%,64.313725%,34.117647%);stroke-opacity:1;stroke-miterlimit:2.613;" d="M 102.59503 28.557474 L 90.031495 28.557474 Z M 112.103732 34.070612 L 80.436741 34.070612 Z M 125.032986 39.539995 L 67.518243 39.539995 Z M 129.50767 45.053134 L 63.108098 45.053134 Z M 129.077412 50.577211 L 63.538356 50.577211 Z M 128.249165 56.090349 L 64.366603 56.090349 Z M 126.990661 61.537855 L 65.635864 61.537855 Z M 125.237359 67.061932 L 67.378409 67.061932 Z M 123.010774 72.58601 L 69.615751 72.58601 Z M 120.214096 78.099148 L 72.412428 78.099148 Z M 116.772032 83.557593 L 75.83298 83.557593 Z M 112.792145 89.08167 L 79.812866 89.08167 Z M 108.113089 94.605747 L 84.491923 94.605747 Z M 102.820915 100.042314 L 89.805609 100.042314 Z M 88.213655 29.684167 L 85.965556 31.07339 C 78.769491 35.262938 71.143167 38.69771 63.043559 40.929219 C 62.968264 44.692155 63.247932 48.411335 63.67819 52.108638 L 64.506437 57.074838 L 65.700403 61.822263 L 67.098741 66.438423 L 68.841286 70.90144 L 70.874256 75.24413 C 71.98217 77.399067 73.176136 79.433678 74.434641 81.522982 C 75.757684 83.557593 77.156023 85.504693 78.554362 87.473671 L 81.630707 91.313178 C 86.116147 96.61848 90.999575 101.508109 96.313262 105.927371 C 100.992318 102.011292 105.251873 97.734234 109.371594 93.205585 C 110.974305 91.335056 112.501721 89.420772 113.986111 87.473671 C 115.448989 85.504693 116.772032 83.557593 118.116588 81.522982 L 120.558303 77.399067 C 121.676974 75.24413 122.720349 73.154825 123.699187 70.923317 L 125.452488 66.438423 L 126.926122 61.822263 L 128.098575 57.074838 L 128.948335 52.108638 C 129.35708 48.411335 129.647504 44.692155 129.572209 40.929219 C 117.481958 37.581956 106.306005 31.642206 96.313262 24.160089 C 93.677932 26.10719 90.967306 27.933964 88.213655 29.684167 Z M 88.213655 29.684167 " transform="matrix(0.363154,0,0,0.357102,0,0.583333)"/>
<path style="fill-rule:evenodd;fill:rgb(100%,100%,100%);fill-opacity:1;stroke-width:1.101;stroke-linecap:butt;stroke-linejoin:round;stroke:rgb(20%,64.313725%,34.117647%);stroke-opacity:1;stroke-miterlimit:2.613;" d="M 79.328826 41.344892 C 81.437091 36.258365 86.449597 35.197305 90.300406 40.371342 C 97.281343 35.131672 104.273036 35.197305 111.264729 42.799748 C 116.56766 49.045784 116.374043 56.451329 111.0496 63.222425 C 105.951042 68.396462 99.59398 68.59336 94.140459 63.988139 C 92.817416 61.472223 92.526992 58.398429 95.538798 55.948145 C 98.539848 54.821452 100.917023 57.348308 98.905567 58.956306 C 98.120346 59.306347 97.345882 59.601694 96.582174 59.929857 C 101.401064 65.880546 110.845228 57.709287 105.391707 52.469618 C 108.543347 49.592722 108.403513 46.453296 105.875747 43.598278 C 100.917023 39.386853 96.377801 40.447913 92.742121 46.245459 L 92.742121 92.439871 L 87.503729 87.189263 C 84.922181 86.204774 82.265337 85.296857 79.608494 84.334245 C 81.2865 84.038898 82.964507 83.765429 84.631756 83.415389 L 84.631756 62.38014 C 83.728215 61.395651 82.824673 60.367407 81.910374 59.306347 C 82.760134 58.606266 83.523842 57.840552 84.352089 57.074838 L 84.352089 41.268321 C 82.674082 39.682199 81.006832 40.371342 79.328826 41.344892 Z M 79.328826 41.344892 " transform="matrix(0.363154,0,0,0.357102,0,0.583333)"/>
<path style=" stroke:none;fill-rule:evenodd;fill:rgb(100%,100%,100%);fill-opacity:1;" d="M 6.578125 34.210938 L 6.652344 36.960938 L 10.484375 35.464844 L 11.578125 38.882812 C 11.578125 38.882812 11.929688 40.601562 13.609375 39.429688 C 15.28125 38.253906 17.5625 36.609375 17.5625 36.609375 C 17.5625 36.609375 18.554688 36.085938 17.921875 34.765625 C 17.285156 33.464844 15.914062 30.792969 15.914062 30.792969 Z M 15.078125 33.339844 L 12.136719 34.4375 L 12.773438 36.132812 C 12.773438 36.132812 12.773438 37.105469 13.679688 36.6875 C 14.570312 36.285156 15.484375 35.859375 15.484375 35.859375 C 15.484375 35.859375 16.195312 35.660156 15.917969 35.039062 C 15.636719 34.4375 15.078125 33.339844 15.078125 33.339844 Z M 7.820312 43.746094 L 19.796875 37.304688 L 21.75 38.882812 L 12.691406 52.03125 L 11.171875 50.183594 L 13.328125 47.363281 L 12.007812 44.421875 L 8.9375 46.140625 Z M 13.960938 43.199219 L 15.003906 44.96875 L 18.832031 39.976562 Z M 20.710938 55.324219 C 20.253906 56.324219 19.773438 57.320312 19.3125 58.320312 C 16.804688 56.671875 14.773438 54.851562 13.199219 52.855469 L 22.664062 39.777344 L 24.191406 40.726562 C 21.90625 44.597656 19.648438 48.4375 17.359375 52.304688 C 18.480469 53.679688 19.597656 54.5 20.710938 55.324219 Z M 20.230469 58.945312 L 23.148438 60.394531 L 27.257812 48.1875 L 27.257812 58.816406 L 31.777344 49.984375 L 30.609375 62.835938 L 33.882812 62.910156 L 34.363281 43.875 L 32.816406 43.746094 L 29.546875 49.761719 L 29.546875 43.199219 L 27.617188 42.652344 Z M 35.605469 43.875 L 40.429688 43.398438 L 40.835938 44.894531 L 37.765625 45.59375 L 38.328125 50.730469 L 41.875 49.839844 L 43.070312 52.429688 L 38.753906 53.679688 C 39.007812 55.546875 39.261719 57.421875 39.519531 59.289062 C 41.292969 59.246094 42.945312 58.699219 44.515625 57.917969 L 45.585938 61.140625 C 42.539062 62.363281 39.289062 62.941406 35.890625 63.058594 Z M 41.195312 43.046875 L 47.179688 60.515625 L 50.304688 58.671875 L 42.867188 42.375 Z M 52.054688 57.570312 L 54.414062 55.375 L 49.894531 48.261719 L 50.785156 47.585938 L 57.28125 52.429688 L 58.929688 50.386719 L 52.257812 46.070312 C 52.257812 46.070312 53.375 44.765625 52.257812 43.546875 C 51.136719 42.300781 49.183594 39.832031 49.183594 39.832031 C 49.183594 39.832031 48.578125 38.882812 47.308594 39.703125 C 46.0625 40.527344 44.109375 41.949219 44.109375 41.949219 Z M 46.546875 42.574219 L 48.578125 45.988281 L 49.894531 45.242188 C 49.894531 45.242188 50.375 44.894531 49.949219 44.292969 C 49.542969 43.671875 48.296875 42.027344 48.296875 42.027344 C 48.296875 42.027344 48.019531 41.546875 47.507812 41.898438 C 47.03125 42.222656 46.546875 42.574219 46.546875 42.574219 Z M 49.542969 37.933594 L 51.015625 36.335938 L 63.039062 41.476562 L 62.074219 44.148438 L 59.164062 42.453125 L 58.042969 45.042969 L 60.40625 48.0625 L 59.007812 50.183594 Z M 56.367188 43.273438 L 52.609375 39.007812 L 57.28125 41.546875 Z M 56.71875 31.96875 L 56.214844 33.339844 L 55.730469 33.140625 C 55.730469 33.140625 55.175781 32.867188 55.050781 33.265625 C 54.898438 33.664062 54.765625 33.886719 54.765625 33.886719 C 54.765625 33.886719 54.691406 33.886719 54.96875 34.210938 C 55.25 34.566406 56.648438 35.1875 56.648438 35.1875 C 56.648438 35.1875 57.40625 35.386719 57.5625 34.914062 C 57.6875 34.4375 58.117188 33.539062 58.117188 33.539062 C 58.117188 33.539062 58.320312 32.589844 59.285156 32.867188 C 60.273438 33.140625 62.914062 34.089844 62.914062 34.089844 C 62.914062 34.089844 63.675781 34.4375 63.675781 35.859375 C 63.675781 37.304688 63.601562 39.628906 63.601562 39.628906 C 63.601562 39.628906 62.914062 40.925781 61.925781 40.378906 C 60.960938 39.832031 59.441406 39.15625 59.441406 39.15625 L 60.125 37.304688 L 60.960938 37.578125 C 60.960938 37.578125 61.597656 37.78125 61.597656 37.03125 L 61.597656 35.660156 L 60.046875 35.039062 L 59.007812 37.304688 C 59.007812 37.304688 58.523438 38.054688 57.484375 37.660156 C 56.441406 37.234375 53.171875 35.3125 53.171875 35.3125 C 53.171875 35.3125 52.132812 34.710938 52.738281 33.613281 C 53.375 32.515625 54.136719 31.496094 54.136719 31.496094 C 54.136719 31.496094 54.488281 30.792969 55.328125 31.144531 C 56.164062 31.496094 56.71875 31.96875 56.71875 31.96875 Z M 59.234375 24.90625 L 58.574219 23.332031 L 58.019531 25.03125 L 56.597656 25.304688 L 57.863281 26.003906 L 57.460938 27.75 L 58.851562 26.601562 L 60.324219 27.152344 L 59.71875 25.953125 L 60.65625 25.078125 Z M 57.863281 20.140625 L 58.675781 21.0625 L 57.308594 20.789062 L 56.089844 21.835938 L 56.089844 20.589844 L 54.71875 19.9375 L 55.984375 19.542969 L 55.984375 18.242188 L 57.078125 19.164062 L 58.246094 19.015625 Z M 53.777344 14.453125 L 54.339844 14.875 L 55.101562 14.675781 L 54.921875 15.148438 L 55.476562 15.796875 L 54.667969 15.75 L 54.339844 16.570312 L 53.882812 15.796875 L 53.121094 15.699219 L 53.652344 15.148438 Z M 50.910156 11.53125 L 51.621094 11.902344 L 52.332031 11.585938 L 52.054688 12.277344 L 52.714844 12.828125 L 51.898438 12.828125 L 51.570312 13.476562 L 51.242188 12.726562 L 50.457031 12.828125 L 50.964844 12.277344 Z M 10.6875 24.90625 L 11.351562 23.332031 L 11.90625 25.03125 L 13.351562 25.304688 L 12.085938 26.003906 L 12.464844 27.75 L 11.097656 26.601562 L 9.59375 27.152344 L 10.207031 25.953125 L 9.265625 25.078125 Z M 12.085938 20.140625 L 11.246094 21.0625 L 12.617188 20.789062 L 13.835938 21.835938 L 13.835938 20.589844 L 15.234375 19.9375 L 13.960938 19.542969 L 13.960938 18.242188 L 12.847656 19.164062 L 11.679688 19.015625 Z M 16.140625 14.453125 L 15.609375 14.875 L 14.824219 14.675781 L 15.003906 15.148438 L 14.441406 15.796875 L 15.28125 15.75 L 15.609375 16.570312 L 16.042969 15.796875 L 16.828125 15.699219 L 16.273438 15.148438 Z M 19.035156 11.53125 L 18.300781 11.902344 L 17.589844 11.585938 L 17.875 12.277344 L 17.210938 12.828125 L 18.023438 12.828125 L 18.355469 13.476562 L 18.683594 12.726562 L 19.46875 12.828125 L 18.960938 12.277344 Z M 19.035156 11.53125 "/>
</g>
</svg>
