<?xml version="1.0" encoding="UTF-8"?>
<svg xmlns="http://www.w3.org/2000/svg" xmlns:xlink="http://www.w3.org/1999/xlink" width="250px" height="250px" viewBox="0 0 250 250" version="1.1">
<g id="surface1">
<path style=" stroke:none;fill-rule:evenodd;fill:rgb(100%,100%,100%);fill-opacity:1;" d="M 125 1.746094 C 193.066406 1.746094 248.253906 56.933594 248.253906 125 C 248.253906 193.066406 193.066406 248.253906 125 248.253906 C 56.933594 248.253906 1.746094 193.066406 1.746094 125 C 1.746094 56.933594 56.933594 1.746094 125 1.746094 "/>
<path style=" stroke:none;fill-rule:evenodd;fill:rgb(0%,39.607843%,21.960784%);fill-opacity:1;" d="M 125 8.347656 C 189.429688 8.347656 241.648438 60.570312 241.648438 125 C 241.648438 189.429688 189.429688 241.664062 125 241.664062 C 60.570312 241.664062 8.347656 189.429688 8.347656 125 C 8.347656 60.570312 60.570312 8.347656 125 8.347656 M 125 5.261719 C 191.125 5.261719 244.738281 58.875 244.738281 125 C 244.738281 191.125 191.125 244.738281 125 244.738281 C 58.875 244.738281 5.261719 191.136719 5.261719 125 C 5.261719 58.863281 58.863281 5.261719 125 5.261719 "/>
<path style=" stroke:none;fill-rule:evenodd;fill:rgb(0%,39.607843%,21.960784%);fill-opacity:1;" d="M 183.742188 40.222656 L 185.132812 43.433594 L 182.765625 46.007812 L 186.230469 45.667969 L 187.9375 48.730469 L 188.695312 45.3125 L 192.113281 44.617188 L 189.109375 42.835938 L 189.515625 39.355469 L 186.902344 41.675781 L 183.742188 40.210938 Z M 193.933594 51.636719 L 194.886719 55.835938 L 191.457031 58.421875 L 195.726562 58.8125 L 197.105469 62.890625 L 198.792969 58.921875 L 203.089844 58.863281 L 199.851562 56.03125 L 201.121094 51.90625 L 197.4375 54.125 Z M 202.648438 66.246094 L 202.710938 71.8125 L 197.667969 74.121094 L 202.953125 75.78125 L 203.578125 81.324219 L 206.773438 76.78125 L 212.207031 77.894531 L 208.898438 73.425781 L 211.632812 68.578125 L 206.382812 70.359375 Z M 208.886719 84.960938 L 207.203125 91.871094 L 200.230469 93.117188 L 206.25 96.863281 L 205.273438 103.90625 L 210.667969 99.304688 L 217.042969 102.417969 L 214.367188 95.835938 L 219.273438 90.710938 L 212.21875 91.234375 Z M 41.089844 84.960938 L 42.773438 91.871094 L 49.742188 93.117188 L 43.726562 96.863281 L 44.703125 103.90625 L 39.304688 99.304688 L 32.933594 102.417969 L 35.621094 95.835938 L 30.710938 90.710938 L 37.769531 91.234375 Z M 47.328125 66.246094 L 47.265625 71.8125 L 52.308594 74.121094 L 47.019531 75.78125 L 46.398438 81.324219 L 43.199219 76.78125 L 37.78125 77.894531 L 41.078125 73.425781 L 38.355469 68.578125 L 43.589844 70.359375 Z M 56.042969 51.636719 L 55.089844 55.835938 L 58.53125 58.421875 L 54.25 58.8125 L 52.867188 62.890625 L 51.183594 58.921875 L 46.898438 58.863281 L 50.132812 56.03125 L 48.851562 51.90625 L 52.539062 54.125 Z M 66.234375 40.222656 L 64.855469 43.433594 L 67.210938 46.007812 L 63.746094 45.667969 L 62.046875 48.730469 L 61.292969 45.3125 L 57.875 44.617188 L 60.875 42.835938 L 60.460938 39.355469 L 63.074219 41.675781 L 66.234375 40.210938 Z M 197.679688 119.261719 C 198.609375 117.261719 199.414062 115.1875 200.207031 113.023438 C 198.046875 112.648438 196.300781 112.339844 194.617188 112.035156 C 190.539062 111.375 187.84375 112.71875 186.523438 114.515625 C 185.191406 116.308594 184.363281 118.003906 183.398438 120.445312 C 182.433594 122.886719 182.496094 127.367188 189.378906 130.433594 C 195.386719 133.203125 199.878906 135.972656 209.398438 127.84375 C 214.992188 123.351562 217.113281 124.878906 219.152344 125.292969 C 222.070312 126.269531 222.375 127.453125 221.800781 130.519531 C 221.046875 134.3125 216.761719 132.300781 214.699219 131.496094 C 213.917969 134.507812 213.085938 136.816406 211.753906 140.074219 C 213 140.589844 214.550781 141.296875 215.953125 141.882812 C 222.289062 144.433594 229.457031 143.042969 231.117188 135.363281 C 232.105469 130.199219 231.8125 127.699219 231.8125 126.792969 C 231.714844 122.023438 228.210938 117.785156 222.132812 116.6875 C 216.199219 115.503906 212.242188 115.171875 203.957031 121.410156 C 199.695312 124.5625 198.988281 125.757812 195.128906 124.21875 C 193.078125 123.4375 191.113281 122.753906 192.261719 120.347656 C 193.140625 118.507812 194.042969 118.1875 197.679688 119.25 M 185.9375 142.515625 L 204.566406 150.160156 C 203.125 153.050781 202.40625 154.527344 200.414062 157.507812 Z M 175.941406 130.578125 C 174.367188 132.238281 172.742188 133.960938 170.863281 135.59375 L 211.328125 186.390625 C 213.757812 183.070312 216.246094 179.078125 218.335938 175.367188 L 207.261719 164.320312 C 209.644531 160.449219 210.679688 158.238281 212.632812 153.722656 L 225.21875 159.214844 C 226.636719 155.554688 227.734375 152.222656 228.492188 148.707031 Z M 171.949219 172.632812 C 176.390625 169.738281 179.089844 167.46875 173.597656 161.035156 L 167.46875 153.308594 C 163.734375 148.195312 161.546875 150.953125 158.742188 152.246094 Z M 181.347656 214.855469 L 149.023438 148.765625 C 153.171875 147.242188 156.6875 145.507812 160.207031 143.433594 C 164.648438 140.5625 168.359375 143.46875 172.09375 146.921875 L 181.542969 155.714844 C 190.503906 164.039062 188.878906 170.25 186.890625 172.253906 L 210.386719 187.683594 C 207.847656 191.210938 205.335938 194.289062 202.503906 197.21875 L 179.578125 178.699219 L 176.90625 180.503906 L 194.019531 205.542969 C 190.296875 208.789062 185.609375 212.21875 181.347656 214.855469 M 140.492188 151.34375 C 142.835938 150.78125 144.386719 150.367188 146.59375 149.632812 L 176.78125 217.601562 C 172.691406 219.835938 167.675781 222.316406 162.609375 224.207031 Z M 138.207031 151.808594 C 133.472656 152.648438 130.761719 153.003906 124.585938 153.050781 L 122.984375 230.957031 C 135.132812 231.285156 147.484375 229.296875 157.960938 225.804688 L 154.46875 212.648438 C 148.863281 214.441406 143.394531 215.773438 137.953125 216.261719 L 134.863281 189.660156 C 140.492188 189.050781 143.566406 188.378906 147.582031 187.0625 L 144.910156 177.160156 C 141.164062 178.234375 137.574219 178.820312 133.65625 179.261719 L 131.480469 160.460938 C 134.410156 160.375 137.488281 159.863281 140.199219 159.167969 Z M 64.808594 212.058594 L 99.585938 148.144531 C 101.636719 148.988281 103.957031 149.730469 106.019531 150.34375 L 102.210938 183.277344 C 103.246094 180.894531 115.125 152.429688 115.125 152.308594 C 116.929688 152.601562 120.386719 152.917969 121.898438 152.976562 L 117.222656 230.6875 C 113.234375 230.578125 107.09375 229.652344 102.746094 228.625 L 109.386719 189.40625 L 92.699219 216.1875 L 92.273438 183.617188 C 90.894531 187.757812 77.101562 219.335938 77.101562 219.457031 C 72.15625 216.929688 68.128906 214.402344 64.808594 212.074219 M 42.675781 191.382812 L 87.574219 141.832031 C 87.402344 141.796875 91.625 144.398438 93.652344 145.421875 L 58.984375 191.417969 C 62.609375 195.007812 63.988281 196.144531 68.40625 199.476562 L 62.121094 210.144531 C 55.53125 205.40625 46.875 196.972656 42.675781 191.382812 M 66.492188 143.421875 L 46.4375 151.78125 C 47.9375 154.734375 49.390625 157.042969 51.402344 159.703125 Z M 75.21875 131.53125 C 76.84375 133.214844 78.859375 135.132812 80.835938 136.804688 L 41.246094 189.625 C 38.707031 186.316406 36.097656 182.398438 33.949219 178.773438 L 45.03125 166.796875 C 42.589844 163.109375 40.429688 159.984375 38.425781 155.285156 L 25.597656 160.9375 C 24.171875 157.214844 22.960938 153.089844 22.363281 150.230469 Z M 57.238281 118.617188 L 43.015625 122.472656 C 43.1875 123.71875 43.421875 124.65625 43.785156 125.902344 C 44.824219 129.308594 46.421875 129.261719 50.414062 127.796875 L 55.628906 125.855469 C 57.703125 124.925781 59.789062 123.988281 58.691406 121.605469 C 57.972656 120.3125 57.25 118.542969 57.25 118.617188 M 61.730469 110.644531 C 62.632812 113 65.320312 118.152344 66.417969 119.859375 C 69.117188 124 67.335938 128.710938 62.292969 131.296875 L 51.964844 136.558594 C 47.046875 139.015625 37.707031 137.925781 35.9375 131.3125 C 35.144531 129.054688 34.789062 127.269531 34.253906 124.867188 L 19.496094 128.980469 C 19.140625 123.632812 19.09375 122.707031 19.410156 118.152344 L 61.742188 110.644531 Z M 125 22.242188 C 159.226562 22.242188 186.976562 50 186.976562 84.226562 C 186.976562 118.457031 159.226562 146.203125 125 146.203125 C 90.773438 146.203125 63.023438 118.457031 63.023438 84.226562 C 63.023438 50 90.773438 22.242188 125 22.242188 M 125 11.695312 C 187.574219 11.695312 238.304688 62.425781 238.304688 125 C 238.304688 187.574219 187.574219 238.304688 125 238.304688 C 62.425781 238.304688 11.695312 187.574219 11.695312 125 C 11.695312 62.425781 62.425781 11.695312 125 11.695312 "/>
<path style=" stroke:none;fill-rule:evenodd;fill:rgb(0%,39.607843%,21.960784%);fill-opacity:1;" d="M 170.875 51.332031 C 143.980469 45.019531 127.574219 30.457031 125 27.867188 C 122.496094 30.433594 105.542969 45.214844 79.210938 51.332031 C 78.6875 108.886719 121.253906 138.476562 125 141.003906 C 128.734375 138.511719 171.253906 109.960938 170.875 51.332031 M 125.683594 26.929688 C 140.40625 40.148438 157.214844 46.960938 171.226562 50.269531 C 160.890625 36.277344 144.359375 27.148438 125.683594 26.929688 M 78.746094 50.292969 C 92.335938 47.105469 108.996094 40.113281 124.292969 26.929688 C 105.617188 27.160156 89.074219 36.292969 78.746094 50.292969 M 124.011719 141.785156 C 94.886719 121.507812 77.210938 85.609375 78.015625 51.320312 C 71.421875 60.65625 67.554688 72.058594 67.554688 84.363281 C 67.554688 115.757812 92.75 141.261719 124.011719 141.785156 M 172.023438 51.367188 C 172.851562 85.863281 155.8125 121.214844 126.011719 141.785156 C 157.261719 141.246094 182.433594 115.746094 182.433594 84.363281 C 182.433594 72.082031 178.578125 60.707031 172.007812 51.367188 M 124.988281 25.414062 C 157.46875 25.414062 183.800781 51.746094 183.800781 84.226562 C 183.800781 116.710938 157.46875 143.042969 124.988281 143.042969 C 92.515625 143.042969 66.1875 116.710938 66.1875 84.226562 C 66.1875 51.746094 92.515625 25.414062 124.988281 25.414062 "/>
<path style=" stroke:none;fill-rule:nonzero;fill:rgb(0%,39.607843%,21.960784%);fill-opacity:1;" d="M 108.324219 73.414062 L 108.324219 57.714844 C 108.324219 54.652344 104.785156 53.832031 101.917969 54.003906 C 104.734375 49.5 108.9375 48 112.953125 51.402344 C 115.648438 47.621094 122.253906 42.394531 128.453125 42.589844 C 156.25 43.015625 157.457031 82.921875 137.792969 90.0625 C 118.761719 96.972656 115.820312 72.535156 127.710938 73.375 C 135.460938 74.046875 133.03125 87 126.050781 82.921875 C 128.773438 90.867188 146.191406 82.738281 137.316406 67.125 C 143.199219 61.121094 138.085938 49.144531 129.417969 49.023438 C 122.082031 48.925781 118.996094 55.8125 118.96875 60.484375 L 118.96875 104.675781 C 118.882812 112.5 119.996094 118.601562 126.441406 122.007812 C 119.921875 125.0625 113.136719 120.628906 111.9375 113.929688 C 109.132812 115.113281 106.175781 114.292969 103.820312 110.5 C 106.238281 110.191406 108.351562 108.605469 108.324219 104.859375 L 108.324219 79.640625 L 105.078125 76.585938 Z M 104.089844 52.976562 C 106.285156 52.894531 109.460938 54.480469 109.460938 57.714844 L 109.460938 73.851562 L 106.664062 76.585938 L 109.460938 79.175781 L 109.460938 105.238281 C 109.460938 107.066406 109.046875 109.925781 105.8125 111.167969 C 108.167969 114.015625 110.386719 113.5 112.925781 112.085938 C 113.476562 119.945312 119.738281 122.535156 123.875 121.65625 C 118.457031 117.675781 117.882812 111.363281 117.835938 105.894531 L 117.835938 60.375 C 117.835938 55.894531 120.933594 47.949219 129.445312 47.972656 C 138.964844 47.984375 144.238281 60.472656 138.648438 67.125 C 148.375 85.121094 125.160156 94.152344 124.449219 80.578125 C 132.019531 87.046875 133.789062 74.964844 127.539062 74.449219 C 117.347656 73.621094 120.472656 95.8125 137.828125 88.84375 C 155.835938 81.480469 155.003906 44.324219 128.453125 43.628906 C 122.339844 43.46875 116.75 48.316406 113.097656 53.050781 C 110.265625 50.242188 107.3125 49.535156 104.078125 52.976562 M 129.417969 132.007812 L 120.59375 132.007812 C 122.816406 133.824219 124.414062 134.9375 125.023438 135.316406 C 125.585938 134.9375 127.171875 133.839844 129.417969 132.007812 M 133.789062 128.210938 L 116.261719 128.210938 C 117.625 129.480469 118.898438 130.589844 120.019531 131.53125 L 129.992188 131.53125 C 131.128906 130.589844 132.398438 129.480469 133.789062 128.210938 M 137.609375 124.476562 L 112.476562 124.476562 C 113.609375 125.660156 114.710938 126.746094 115.757812 127.734375 L 134.289062 127.734375 C 135.351562 126.746094 136.460938 125.660156 137.609375 124.476562 M 137.585938 82.25 L 138.929688 82.25 C 138.832031 82.410156 138.746094 82.570312 138.648438 82.714844 L 137.195312 82.714844 C 137.328125 82.570312 137.464844 82.410156 137.585938 82.25 M 131.433594 82.25 L 137.585938 82.25 C 137.464844 82.410156 137.328125 82.570312 137.195312 82.714844 L 131.019531 82.714844 C 131.164062 82.570312 131.3125 82.421875 131.433594 82.25 M 130.945312 82.25 L 131.433594 82.25 C 131.3125 82.421875 131.164062 82.582031 131.019531 82.714844 L 130.140625 82.714844 C 130.445312 82.617188 130.714844 82.457031 130.945312 82.25 M 139.464844 78.382812 L 140.296875 78.382812 C 140.257812 78.539062 140.234375 78.699219 140.199219 78.859375 L 139.332031 78.859375 C 139.378906 78.699219 139.417969 78.539062 139.464844 78.382812 M 132.496094 78.382812 L 139.464844 78.382812 C 139.417969 78.539062 139.378906 78.699219 139.332031 78.859375 L 132.507812 78.859375 C 132.507812 78.699219 132.507812 78.539062 132.496094 78.382812 M 131.871094 78.382812 L 132.496094 78.382812 C 132.507812 78.539062 132.507812 78.699219 132.507812 78.859375 L 131.945312 78.859375 C 131.921875 78.699219 131.910156 78.539062 131.871094 78.382812 M 120.921875 78.382812 L 121.421875 78.382812 C 121.386719 78.539062 121.339844 78.699219 121.3125 78.859375 L 120.8125 78.859375 C 120.851562 78.699219 120.875 78.539062 120.921875 78.382812 M 118.96875 78.382812 L 120.921875 78.382812 C 120.875 78.539062 120.851562 78.699219 120.8125 78.859375 L 118.96875 78.859375 Z M 118.199219 78.382812 L 118.96875 78.382812 L 118.96875 78.859375 L 118.199219 78.859375 Z M 139.78125 74.644531 L 140.441406 74.644531 C 140.453125 74.792969 140.453125 74.953125 140.464844 75.109375 L 139.808594 75.109375 C 139.796875 74.953125 139.796875 74.792969 139.78125 74.644531 M 130.8125 74.644531 L 139.78125 74.644531 C 139.796875 74.792969 139.796875 74.953125 139.808594 75.109375 L 131.261719 75.109375 C 131.128906 74.9375 130.96875 74.78125 130.8125 74.644531 M 129.027344 74.644531 L 130.8125 74.644531 C 130.96875 74.78125 131.128906 74.9375 131.261719 75.109375 L 129.820312 75.109375 C 129.578125 74.925781 129.308594 74.769531 129.027344 74.644531 M 123.21875 74.644531 L 124.914062 74.644531 C 124.546875 74.769531 124.230469 74.925781 123.925781 75.109375 L 122.691406 75.109375 C 122.851562 74.9375 123.023438 74.78125 123.207031 74.644531 M 118.96875 74.644531 L 123.207031 74.644531 C 123.023438 74.78125 122.851562 74.9375 122.691406 75.109375 L 118.96875 75.109375 Z M 118.214844 74.644531 L 118.96875 74.644531 L 118.96875 75.109375 L 118.214844 75.109375 Z M 138.988281 70.824219 L 139.683594 70.824219 C 139.734375 70.984375 139.78125 71.140625 139.820312 71.289062 L 139.136719 71.289062 C 139.097656 71.140625 139.039062 70.984375 138.988281 70.824219 M 118.96875 70.824219 L 138.988281 70.824219 C 139.039062 70.984375 139.085938 71.140625 139.136719 71.289062 L 118.96875 71.289062 Z M 118.214844 70.824219 L 118.96875 70.824219 L 118.96875 71.289062 L 118.214844 71.289062 Z M 137.402344 67.027344 L 138.355469 67.027344 C 138.316406 67.078125 138.269531 67.125 138.234375 67.175781 C 138.28125 67.285156 138.332031 67.394531 138.378906 67.503906 L 137.511719 67.503906 C 137.4375 67.371094 137.378906 67.25 137.304688 67.125 C 137.339844 67.089844 137.367188 67.066406 137.402344 67.027344 M 118.96875 67.027344 L 137.402344 67.027344 C 137.367188 67.066406 137.339844 67.101562 137.304688 67.125 C 137.378906 67.25 137.4375 67.382812 137.511719 67.503906 L 118.96875 67.503906 Z M 118.214844 67.027344 L 118.96875 67.027344 L 118.96875 67.503906 L 118.214844 67.503906 Z M 139.515625 63.21875 L 140.257812 63.21875 C 140.222656 63.367188 140.1875 63.523438 140.148438 63.683594 L 139.378906 63.683594 C 139.429688 63.523438 139.476562 63.367188 139.515625 63.21875 M 118.96875 63.21875 L 139.515625 63.21875 C 139.476562 63.367188 139.429688 63.523438 139.378906 63.683594 L 118.96875 63.683594 Z M 118.226562 63.21875 L 118.96875 63.21875 L 118.96875 63.683594 L 118.226562 63.683594 Z M 139.769531 59.421875 L 140.441406 59.421875 C 140.453125 59.570312 140.464844 59.730469 140.476562 59.886719 L 139.808594 59.886719 C 139.808594 59.730469 139.78125 59.570312 139.769531 59.421875 M 119.03125 59.421875 L 139.769531 59.421875 C 139.78125 59.570312 139.808594 59.730469 139.808594 59.886719 L 118.980469 59.886719 C 118.996094 59.730469 119.007812 59.582031 119.03125 59.421875 M 118.25 59.421875 L 119.03125 59.421875 C 119.007812 59.582031 118.996094 59.742188 118.980469 59.886719 L 118.238281 59.886719 C 118.238281 59.730469 118.238281 59.582031 118.25 59.421875 M 138.707031 55.601562 L 139.417969 55.601562 C 139.488281 55.761719 139.550781 55.921875 139.613281 56.078125 L 138.902344 56.078125 C 138.84375 55.921875 138.769531 55.761719 138.707031 55.601562 M 119.984375 55.601562 L 138.707031 55.601562 C 138.769531 55.761719 138.84375 55.921875 138.902344 56.078125 L 119.800781 56.078125 C 119.859375 55.921875 119.910156 55.761719 119.984375 55.601562 M 119.175781 55.601562 L 119.984375 55.601562 C 119.910156 55.761719 119.859375 55.921875 119.800781 56.078125 L 118.996094 56.078125 C 119.054688 55.921875 119.117188 55.761719 119.175781 55.601562 M 136.011719 51.804688 L 137.085938 51.804688 C 137.21875 51.964844 137.351562 52.125 137.476562 52.28125 L 136.476562 52.28125 C 136.328125 52.125 136.167969 51.964844 136.011719 51.804688 M 122.4375 51.804688 L 136.011719 51.804688 C 136.167969 51.964844 136.328125 52.125 136.476562 52.28125 L 121.996094 52.28125 C 122.144531 52.125 122.289062 51.964844 122.4375 51.804688 M 121.667969 51.804688 L 122.4375 51.804688 C 122.289062 51.964844 122.144531 52.125 121.996094 52.28125 L 121.242188 52.28125 C 121.375 52.125 121.519531 51.964844 121.667969 51.804688 M 125.769531 89.867188 L 128.710938 89.867188 C 129.515625 90.101562 130.394531 90.269531 131.324219 90.332031 L 126.683594 90.332031 C 126.367188 90.1875 126.0625 90.027344 125.769531 89.867188 M 118.96875 89.867188 L 125.769531 89.867188 C 126.0625 90.027344 126.367188 90.1875 126.683594 90.332031 L 118.96875 90.332031 Z M 118.175781 89.867188 L 118.96875 89.867188 L 118.96875 90.332031 L 118.175781 90.332031 Z M 122.046875 86.046875 L 123.195312 86.046875 C 123.316406 86.207031 123.4375 86.363281 123.570312 86.523438 L 122.3125 86.523438 C 122.21875 86.363281 122.132812 86.207031 122.046875 86.046875 M 118.96875 86.046875 L 122.046875 86.046875 C 122.132812 86.207031 122.21875 86.363281 122.3125 86.523438 L 118.96875 86.523438 Z M 118.1875 86.046875 L 118.96875 86.046875 L 118.96875 86.523438 L 118.1875 86.523438 Z M 120.75 82.25 L 121.398438 82.25 C 121.4375 82.410156 121.472656 82.570312 121.519531 82.714844 L 120.835938 82.714844 C 120.800781 82.570312 120.777344 82.410156 120.75 82.25 M 118.96875 82.25 L 120.75 82.25 C 120.777344 82.410156 120.8125 82.570312 120.835938 82.714844 L 118.96875 82.714844 Z M 118.199219 82.25 L 118.96875 82.25 L 118.96875 82.714844 L 118.1875 82.714844 L 118.1875 82.25 Z M 138.097656 44.664062 L 137.339844 44.664062 C 136.902344 44.507812 136.449219 44.335938 135.984375 44.203125 L 137 44.203125 C 137.378906 44.347656 137.746094 44.507812 138.097656 44.664062 M 143.6875 48.460938 L 143.46875 48.460938 C 143.296875 48.304688 143.128906 48.144531 142.945312 48 L 143.175781 48 C 143.347656 48.15625 143.53125 48.304688 143.6875 48.460938 M 146.851562 52.28125 L 146.703125 52.28125 C 146.59375 52.125 146.496094 51.964844 146.386719 51.804688 L 146.53125 51.804688 C 146.644531 51.964844 146.753906 52.125 146.851562 52.28125 M 148.875 56.078125 L 148.730469 56.078125 C 148.667969 55.921875 148.597656 55.761719 148.523438 55.601562 L 148.667969 55.601562 C 148.742188 55.761719 148.816406 55.921875 148.875 56.078125 M 150.183594 59.886719 L 150 59.886719 C 149.964844 59.730469 149.914062 59.582031 149.878906 59.421875 L 150.0625 59.421875 C 150.097656 59.582031 150.132812 59.742188 150.183594 59.886719 M 150.914062 63.683594 L 150.683594 63.683594 C 150.671875 63.539062 150.648438 63.367188 150.636719 63.21875 L 150.84375 63.21875 C 150.867188 63.378906 150.890625 63.539062 150.914062 63.683594 M 151.148438 67.503906 L 150.878906 67.503906 C 150.878906 67.347656 150.878906 67.1875 150.878906 67.027344 L 151.148438 67.027344 C 151.148438 67.1875 151.148438 67.347656 151.148438 67.503906 M 150.914062 71.300781 L 150.609375 71.300781 C 150.621094 71.140625 150.648438 70.984375 150.671875 70.824219 L 150.964844 70.824219 C 150.953125 70.984375 150.929688 71.140625 150.914062 71.300781 M 150.183594 75.109375 L 149.839844 75.109375 C 149.890625 74.953125 149.925781 74.792969 149.964844 74.644531 L 150.292969 74.644531 C 150.257812 74.804688 150.21875 74.953125 150.183594 75.109375 M 148.914062 78.859375 L 148.523438 78.859375 C 148.597656 78.699219 148.667969 78.539062 148.730469 78.382812 L 149.097656 78.382812 C 149.035156 78.539062 148.976562 78.699219 148.914062 78.859375 M 146.851562 82.714844 L 146.386719 82.714844 C 146.484375 82.570312 146.59375 82.410156 146.691406 82.25 L 147.15625 82.25 C 147.058594 82.410156 146.949219 82.570312 146.851562 82.714844 M 143.617188 86.523438 L 142.921875 86.523438 C 143.101562 86.363281 143.285156 86.207031 143.46875 86.046875 L 144.117188 86.046875 C 143.957031 86.207031 143.785156 86.363281 143.617188 86.523438 M 137.011719 90.332031 L 133.203125 90.332031 C 134.117188 90.269531 135.082031 90.113281 136.085938 89.867188 L 138.304688 89.867188 C 138.136719 89.929688 137.964844 90.003906 137.792969 90.0625 C 137.523438 90.160156 137.269531 90.246094 137.011719 90.332031 M 118.96875 94.128906 L 118.175781 94.128906 L 118.175781 93.664062 L 118.96875 93.664062 Z M 118.96875 97.9375 L 118.164062 97.9375 L 118.164062 97.472656 L 118.96875 97.472656 Z M 118.96875 101.746094 L 118.164062 101.746094 L 118.164062 101.269531 L 118.96875 101.269531 Z M 118.96875 105.457031 L 118.152344 105.457031 L 118.152344 104.992188 L 118.96875 104.992188 C 118.96875 105.152344 118.96875 105.308594 118.96875 105.457031 M 119.105469 109.265625 L 118.164062 109.265625 L 118.152344 109.191406 L 118.152344 108.789062 L 119.066406 108.789062 C 119.078125 108.949219 119.09375 109.105469 119.105469 109.265625 M 119.679688 113.074219 L 118.859375 113.074219 C 118.824219 112.914062 118.773438 112.769531 118.738281 112.609375 L 119.582031 112.609375 C 119.605469 112.769531 119.640625 112.914062 119.679688 113.074219 M 121.105469 116.871094 L 120.289062 116.871094 C 120.214844 116.710938 120.140625 116.566406 120.070312 116.40625 L 120.851562 116.40625 C 120.933594 116.566406 121.007812 116.722656 121.105469 116.871094 M 124.367188 120.691406 L 123.109375 120.691406 C 122.9375 120.53125 122.777344 120.386719 122.621094 120.214844 L 123.78125 120.214844 C 123.960938 120.375 124.15625 120.53125 124.367188 120.691406 M 115.308594 120.214844 L 116.332031 120.214844 C 116.492188 120.386719 116.664062 120.53125 116.84375 120.691406 L 115.832031 120.691406 C 115.660156 120.53125 115.476562 120.386719 115.308594 120.214844 M 112.671875 116.40625 L 113.695312 116.40625 C 113.769531 116.554688 113.84375 116.710938 113.914062 116.871094 L 112.878906 116.871094 C 112.804688 116.722656 112.730469 116.566406 112.671875 116.40625 M 105.46875 112.609375 L 106.507812 112.609375 C 106.75 112.769531 106.996094 112.925781 107.25 113.074219 L 105.992188 113.074219 C 105.8125 112.925781 105.640625 112.78125 105.46875 112.609375 M 107.152344 108.789062 L 108.519531 108.789062 C 108.496094 108.921875 108.472656 109.046875 108.449219 109.15625 C 108.421875 109.191406 108.398438 109.226562 108.375 109.265625 L 106.703125 109.265625 C 106.859375 109.117188 107.007812 108.960938 107.152344 108.789062 M 108.324219 104.992188 L 108.617188 104.992188 L 108.617188 105.46875 L 108.3125 105.46875 C 108.324219 105.308594 108.324219 105.164062 108.324219 104.992188 M 108.324219 101.269531 L 108.617188 101.269531 L 108.617188 101.746094 L 108.324219 101.746094 Z M 108.324219 97.472656 L 108.628906 97.472656 L 108.628906 97.949219 L 108.324219 97.949219 Z M 108.324219 93.664062 L 108.628906 93.664062 L 108.628906 94.128906 L 108.324219 94.128906 Z M 108.324219 89.867188 L 108.644531 89.867188 L 108.644531 90.332031 L 108.324219 90.332031 Z M 108.324219 86.058594 L 108.644531 86.058594 L 108.644531 86.523438 L 108.324219 86.523438 Z M 108.324219 82.261719 L 108.65625 82.261719 L 108.65625 82.726562 L 108.324219 82.726562 Z M 106.984375 78.394531 L 107.679688 78.394531 L 108.09375 78.859375 L 107.484375 78.859375 Z M 108.324219 70.835938 L 108.644531 70.835938 L 108.644531 71.300781 L 108.324219 71.300781 Z M 108.324219 67.039062 L 108.65625 67.039062 L 108.65625 67.503906 L 108.324219 67.503906 Z M 108.324219 63.21875 L 108.65625 63.21875 L 108.65625 63.683594 L 108.324219 63.683594 Z M 108.324219 59.421875 L 108.667969 59.421875 L 108.667969 59.886719 L 108.324219 59.886719 Z M 107.542969 55.617188 L 108.558594 55.617188 C 108.605469 55.761719 108.628906 55.921875 108.65625 56.078125 L 107.898438 56.078125 C 107.800781 55.90625 107.679688 55.75 107.542969 55.617188 M 103.636719 51.820312 L 104.40625 51.820312 C 104.273438 51.964844 104.136719 52.125 103.992188 52.28125 L 103.199219 52.28125 C 103.34375 52.125 103.492188 51.964844 103.636719 51.820312 M 116.101562 48 L 117.445312 48 C 117.273438 48.15625 117.113281 48.316406 116.945312 48.472656 L 115.589844 48.472656 C 115.746094 48.316406 115.917969 48.15625 116.101562 48 M 121.742188 44.203125 L 123.023438 44.203125 C 122.691406 44.347656 122.363281 44.507812 122.035156 44.675781 L 120.824219 44.675781 C 121.128906 44.507812 121.4375 44.359375 121.742188 44.203125 M 134.558594 40.855469 L 115.222656 40.855469 C 113.550781 41.941406 111.683594 43.066406 109.644531 44.203125 L 121.742188 44.203125 C 121.4375 44.359375 121.128906 44.507812 120.824219 44.675781 L 108.789062 44.675781 C 106.726562 45.800781 104.503906 46.921875 102.125 48.011719 L 116.101562 48.011719 C 115.929688 48.15625 115.757812 48.316406 115.589844 48.472656 L 101.085938 48.472656 C 98.414062 49.65625 95.554688 50.792969 92.53125 51.820312 L 103.636719 51.820312 C 103.492188 51.964844 103.34375 52.125 103.199219 52.28125 L 91.113281 52.28125 C 88.820312 53.027344 86.425781 53.710938 83.949219 54.296875 C 83.949219 54.734375 83.949219 55.175781 83.949219 55.617188 L 107.554688 55.617188 C 107.691406 55.761719 107.800781 55.921875 107.898438 56.078125 L 83.960938 56.078125 C 83.972656 57.214844 84.007812 58.324219 84.070312 59.4375 L 108.335938 59.4375 L 108.335938 59.898438 L 84.09375 59.898438 C 84.144531 61.023438 84.226562 62.132812 84.3125 63.234375 L 108.335938 63.234375 L 108.335938 63.695312 L 84.363281 63.695312 C 84.460938 64.820312 84.582031 65.941406 84.71875 67.039062 L 108.335938 67.039062 L 108.335938 67.503906 L 84.777344 67.503906 C 84.914062 68.628906 85.082031 69.738281 85.253906 70.835938 L 108.335938 70.835938 L 108.335938 71.300781 L 85.339844 71.300781 C 85.523438 72.4375 85.730469 73.546875 85.960938 74.644531 L 108.667969 74.644531 L 108.191406 75.121094 L 86.058594 75.121094 C 86.28125 76.21875 86.535156 77.320312 86.792969 78.394531 L 106.984375 78.394531 L 107.484375 78.859375 L 86.914062 78.859375 C 87.207031 80.015625 87.511719 81.140625 87.828125 82.261719 L 108.335938 82.261719 L 108.335938 82.726562 L 87.964844 82.726562 C 88.304688 83.851562 88.648438 84.960938 89.015625 86.046875 L 108.335938 86.046875 L 108.335938 86.523438 L 89.171875 86.523438 C 89.5625 87.660156 89.953125 88.769531 90.382812 89.867188 L 108.335938 89.867188 L 108.335938 90.332031 L 90.550781 90.332031 C 90.992188 91.46875 91.441406 92.578125 91.90625 93.664062 L 108.335938 93.664062 L 108.335938 94.128906 L 92.113281 94.128906 C 92.613281 95.277344 93.128906 96.386719 93.652344 97.472656 L 108.335938 97.472656 L 108.335938 97.9375 L 93.871094 97.9375 C 94.433594 99.070312 94.996094 100.183594 95.582031 101.269531 L 108.335938 101.269531 L 108.335938 101.746094 L 95.824219 101.746094 C 96.4375 102.855469 97.046875 103.941406 97.667969 104.992188 L 108.335938 104.992188 C 108.335938 105.152344 108.324219 105.308594 108.3125 105.457031 L 97.9375 105.457031 C 98.621094 106.605469 99.316406 107.714844 100.011719 108.789062 L 107.152344 108.789062 C 107.019531 108.960938 106.871094 109.117188 106.714844 109.265625 L 100.316406 109.265625 C 101.074219 110.414062 101.84375 111.523438 102.613281 112.609375 L 105.480469 112.609375 C 105.652344 112.78125 105.824219 112.925781 106.007812 113.074219 L 102.953125 113.074219 C 103.785156 114.234375 104.625 115.332031 105.457031 116.394531 L 112.683594 116.394531 C 112.746094 116.554688 112.816406 116.710938 112.890625 116.871094 L 105.824219 116.871094 C 106.75 118.042969 107.691406 119.152344 108.59375 120.214844 L 115.308594 120.214844 C 115.492188 120.375 115.660156 120.53125 115.84375 120.679688 L 109.007812 120.679688 C 110.035156 121.863281 111.046875 122.960938 112.046875 124.011719 L 138.085938 124.011719 C 139.074219 122.960938 140.101562 121.863281 141.136719 120.679688 L 124.367188 120.679688 C 124.171875 120.53125 123.976562 120.375 123.792969 120.214844 L 141.554688 120.214844 C 142.46875 119.152344 143.40625 118.042969 144.347656 116.871094 L 121.105469 116.871094 C 121.019531 116.710938 120.933594 116.554688 120.863281 116.394531 L 144.714844 116.394531 C 145.558594 115.332031 146.398438 114.234375 147.230469 113.074219 L 119.691406 113.074219 C 119.652344 112.914062 119.617188 112.769531 119.582031 112.609375 L 147.570312 112.609375 C 148.339844 111.523438 149.109375 110.414062 149.867188 109.265625 L 119.117188 109.265625 C 119.09375 109.105469 119.09375 108.949219 119.078125 108.789062 L 150.183594 108.789062 C 150.878906 107.714844 151.574219 106.605469 152.257812 105.457031 L 118.96875 105.457031 C 118.96875 105.308594 118.96875 105.152344 118.96875 104.992188 L 152.527344 104.992188 C 153.148438 103.941406 153.761719 102.855469 154.371094 101.746094 L 118.980469 101.746094 L 118.980469 101.269531 L 154.613281 101.269531 C 155.199219 100.183594 155.761719 99.070312 156.3125 97.9375 L 118.980469 97.9375 L 118.980469 97.472656 L 156.53125 97.472656 C 157.054688 96.386719 157.570312 95.277344 158.058594 94.128906 L 118.980469 94.128906 L 118.980469 93.664062 L 158.265625 93.664062 C 158.726562 92.578125 159.179688 91.46875 159.605469 90.332031 L 137.023438 90.332031 C 137.28125 90.246094 137.535156 90.160156 137.804688 90.0625 C 137.976562 90.003906 138.148438 89.929688 138.316406 89.867188 L 159.789062 89.867188 C 160.207031 88.769531 160.59375 87.660156 160.972656 86.523438 L 143.628906 86.523438 C 143.796875 86.363281 143.96875 86.21875 144.128906 86.046875 L 161.132812 86.046875 C 161.5 84.960938 161.839844 83.851562 162.171875 82.726562 L 146.851562 82.726562 C 146.949219 82.570312 147.058594 82.410156 147.15625 82.261719 L 162.304688 82.261719 C 162.621094 81.140625 162.925781 80.015625 163.207031 78.859375 L 148.914062 78.859375 C 148.988281 78.710938 149.046875 78.550781 149.109375 78.394531 L 163.316406 78.394531 C 163.574219 77.320312 163.820312 76.21875 164.050781 75.121094 L 150.183594 75.121094 C 150.21875 74.964844 150.257812 74.804688 150.304688 74.644531 L 164.148438 74.644531 C 164.367188 73.546875 164.5625 72.4375 164.757812 71.300781 L 150.914062 71.300781 C 150.929688 71.15625 150.953125 70.996094 150.964844 70.835938 L 164.820312 70.835938 C 165.003906 69.738281 165.160156 68.628906 165.296875 67.503906 L 151.148438 67.503906 C 151.148438 67.359375 151.148438 67.199219 151.148438 67.039062 L 165.355469 67.039062 C 165.492188 65.941406 165.601562 64.820312 165.699219 63.695312 L 150.914062 63.695312 C 150.890625 63.539062 150.867188 63.378906 150.84375 63.234375 L 165.746094 63.234375 C 165.832031 62.132812 165.90625 61.023438 165.953125 59.898438 L 150.183594 59.898438 C 150.148438 59.742188 150.097656 59.582031 150.0625 59.4375 L 165.980469 59.4375 C 166.027344 58.324219 166.0625 57.214844 166.078125 56.078125 L 148.890625 56.078125 C 148.816406 55.933594 148.742188 55.773438 148.667969 55.617188 L 166.078125 55.617188 C 166.089844 55.175781 166.089844 54.734375 166.089844 54.296875 C 163.539062 53.710938 161.109375 53.027344 158.765625 52.28125 L 146.851562 52.28125 C 146.753906 52.136719 146.644531 51.976562 146.53125 51.820312 L 157.324219 51.820312 C 154.222656 50.792969 151.332031 49.65625 148.644531 48.472656 L 143.6875 48.472656 C 143.53125 48.316406 143.347656 48.15625 143.175781 48.011719 L 147.582031 48.011719 C 145.191406 46.910156 142.957031 45.800781 140.917969 44.675781 L 138.097656 44.675781 C 137.746094 44.507812 137.378906 44.359375 137 44.203125 L 140.074219 44.203125 C 138.039062 43.066406 136.195312 41.941406 134.558594 40.855469 M 129.210938 37.0625 L 120.691406 37.0625 C 119.371094 38.0625 117.785156 39.183594 115.941406 40.394531 L 133.839844 40.394531 C 132.042969 39.183594 130.492188 38.0625 129.210938 37.0625 M 121.300781 36.597656 L 128.613281 36.597656 C 126.757812 35.105469 125.539062 33.984375 125 33.433594 C 124.488281 33.984375 123.230469 35.105469 121.300781 36.597656 M 167.1875 53.46875 C 168.226562 85.203125 151.917969 118.273438 125 136.902344 C 98.730469 118.566406 81.835938 84.996094 82.824219 53.46875 C 95.03125 50.632812 111.183594 44.359375 125 31.898438 C 138.292969 44.410156 154.589844 50.5 167.1875 53.46875 "/>
</g>
</svg>
